/* XPM */
static char *wiki32[] = {
/* columns rows colors chars-per-pixel */
"32 32 166 2 ",
"   c #042F56",
".  c #043157",
"X  c #03345B",
"o  c #0B355C",
"O  c #04395F",
"+  c #1C3E5C",
"@  c #043661",
"#  c #0A3761",
"$  c #043C64",
"%  c #083D65",
"&  c #043E69",
"*  c #143F62",
"=  c #183D64",
"-  c #0F4366",
";  c #04436D",
":  c #0B446C",
">  c #1B4364",
",  c #13466B",
"<  c #1A476C",
"1  c #17486E",
"2  c #1B496E",
"3  c #044671",
"4  c #0A4771",
"5  c #044A75",
"6  c #0B4C74",
"7  c #054D7B",
"8  c #104671",
"9  c #144B72",
"0  c #1A4C73",
"q  c #05507E",
"w  c #0D517C",
"e  c #1B5073",
"r  c #11507A",
"t  c #19557C",
"y  c #1D587E",
"u  c #204064",
"i  c #234B6D",
"p  c #304E6C",
"a  c #275677",
"s  c #2F5370",
"d  c #225A7D",
"f  c #2D5D7F",
"g  c #365B77",
"h  c #365C7C",
"j  c #36607D",
"k  c #45637C",
"l  c #48627D",
"z  c #50687D",
"x  c #055484",
"c  c #0C5483",
"v  c #0F5987",
"b  c #055788",
"n  c #0A5789",
"m  c #05598C",
"M  c #0A5A8C",
"N  c #125680",
"B  c #135A86",
"V  c #1C5B83",
"C  c #055C91",
"Z  c #146293",
"A  c #1A6390",
"S  c #1D6897",
"D  c #1C6998",
"F  c #286287",
"G  c #23638B",
"H  c #2B668B",
"J  c #2C688D",
"K  c #326585",
"L  c #386685",
"P  c #3D6887",
"I  c #2C6C94",
"U  c #246D9A",
"Y  c #2C6F9A",
"T  c #3C7193",
"R  c #31759F",
"E  c #3577A1",
"W  c #3D7AA1",
"Q  c #4E6784",
"!  c #426B86",
"~  c #4D6D84",
"^  c #4C6F88",
"/  c #516C83",
"(  c #4D728C",
")  c #5D7184",
"_  c #52738C",
"`  c #5D7489",
"'  c #5A788E",
"]  c #417494",
"[  c #4E7792",
"{  c #46799A",
"}  c #557691",
"|  c #557991",
" . c #5C7C93",
".. c #507D99",
"X. c #6A7E8E",
"o. c #637B93",
"O. c #76848F",
"+. c #628296",
"@. c #6B8596",
"#. c #66869B",
"$. c #6C869A",
"%. c #6A899D",
"&. c #778895",
"*. c #7A8894",
"=. c #758B9B",
"-. c #4B81A4",
";. c #5284A4",
":. c #5E87A2",
">. c #5689A9",
",. c #5D8DAB",
"<. c #618FAC",
"1. c #7391A5",
"2. c #7C95A6",
"3. c #7496AC",
"4. c #7A97A9",
"5. c #7798AE",
"6. c #7D98AA",
"7. c #84929C",
"8. c #8A959D",
"9. c #8596A4",
"0. c #8A97A2",
"q. c #8698A3",
"w. c #8D9BA5",
"e. c #8B9CA9",
"r. c #939BA3",
"t. c #929FAA",
"y. c #97A0A6",
"u. c #9EA3A7",
"i. c #94A0AA",
"p. c #9BA4AB",
"a. c #86A0B1",
"s. c #85A4B9",
"d. c #8AA6B8",
"f. c #8BA9BD",
"g. c #9AA6B1",
"h. c #9EA9B2",
"j. c #96ABB9",
"k. c #A4A6A7",
"l. c #A4A7AA",
"z. c #A5A9AB",
"x. c #ACACAC",
"c. c #A2ABB3",
"v. c #AAAEB1",
"b. c #AEB1B3",
"n. c #A4B2BC",
"m. c #B3B4B4",
"M. c #B7B9BB",
"N. c #BCBCBC",
"B. c #94AFC1",
"V. c #9CB3C2",
"C. c #A4B5C1",
"Z. c #AABAC4",
"A. c #B2BCC3",
"S. c #B7C4CD",
"D. c #BBC4CA",
"F. c #C3C3C4",
"G. c #C4C6C9",
"H. c #C5C9CB",
"J. c #CBCBCB",
"K. c #C3CBD1",
"L. c #CCD1D4",
"P. c #D3D4D4",
"I. c #D6D7D8",
"U. c #D7D8D8",
"Y. c #D8D8D8",
"T. c None",
/* pixels */
"T.T.T.T.T.T.T.T.T.T.T.T.C C m m b x x x T.T.T.T.T.T.T.T.T.T.T.T.",
"T.T.T.T.T.T.T.T.T.C C D <.s.n.S.A.n.a.>.G q q T.T.T.T.T.T.T.T.T.",
"T.T.T.T.T.T.T.C C E V.P.I.P.D.n.n.M.F.F.F.p.T q q T.T.T.T.T.T.T.",
"T.T.T.T.T.T.C Z f.U.P.B.-.Z b b m b v T 2.M.N.w.y 7 T.T.T.T.T.T.",
"T.T.T.T.T.C U S.Y.n.Y m m m b b x x x q q V 2.M.x.H 5 T.T.T.T.T.",
"T.T.T.T.m U K.I.<.m m m b b x x x x q q q 7 [ m.m.x.K 3 T.T.T.T.",
"T.T.T.M Z S.P.{ m m m b b b x x x q q q q q ( b.b.x.z.d ; T.T.T.",
"T.T.9 M f.I.>.C m b b b b x x x q q q q 5 7 [ b.x.k.z.8.6 , T.T.",
"T.T.n R P.d.m m b b b x x x x q q q 7 7 7 5 ( x.x.7._ x.( 4 T.T.",
"T.1 M n.H.A b b b x x x x q q q 7 7 5 5 5 5 ( x.x.7.4 r.u.6 1 T.",
"T.w R J.5.b b b x x x q q q q 7 7 5 5 5 5 5 ~ z.l.7.; ! b.( 4 T.",
"T.x 5.J.G x q q q q q q 7 7 5 5 5 5 5 3 ; ; ~ x.x.7.3 6 z.q.7 T.",
"> b n.F.6.6.2.2.1.t q 7 5 5 y $.@.P 3 ; ; ; z x.b.8.3 3 =.b.w > ",
"< B F.F.F.F.F.D.N.#.5 5 5 5 _ b.x.z.e ; ; ; ~ b.b.q.3 3 | M.F , ",
", G F.F.D.N.F.N.N.M.t 3 3 ; ( x.x.k.&.; ; ; _ m.m.w.; 3 L M.] , ",
", J N.c.w.w.w.b.M.m.=.; ; ; ~ x.x.x.x.j ; ; _ m.M.w.3 3 f M.+., ",
", H N.| ; ; ; +.m.m.b.s ; ; z x.x.x.m.y.: ; _ M.N.r.3 3 F N...2 ",
", V M.+.; ; ; - k.b.x.7.O $ ~ x.x.x.m.m.' ; _ N.N.t.& 3 ! F.{ 8 ",
"> w m.@.; ; ; ; k b.x.k.g $ / x.m.m.m.N.m.0 _ N.F.i.; &  .G.J 8 ",
"+ 7 r.y.; $ $ O O 8.k.x.r.% / m.m.z.x.N.N.9._ F.F.p.& 3 e.G.M u ",
"T.6 +.b.i O O O O s x.x.b./ / m.m.y._ N.F.F.q.J.G.g.& 8 G.j.n T.",
"T., d x.@.O X X O O *.x.x.x.o.m.N.p.$ h.F.F.F.J.J.c.& } J.;.r T.",
"T.+ 6 7.k.> X X . O i x.m.N.x.N.N.p.; j F.J.J.J.J.c.% A.D.M 2 T.",
"T.T.: f k.O.X X . . . @.m.N.N.N.F.p.O O q.J.J.J.L.c.$.I.,.c T.T.",
"T.T.+ 3 @.x.z X . . . > v.N.N.F.F.h.@ # < F.P.P.P.G.P.Z.C 0 T.T.",
"T.T.T.- 6 r.x.k . . . X ` N.F.F.F.h.@ @ @ o.P.P.P.P.K.U c T.T.T.",
"T.T.T.T.4 t u.m.)     . o v.G.G.G.c.X @ X # A.P.Y.L.E n T.T.T.T.",
"T.T.T.T.T.3 t i.N.r.p   . l G.G.J.c.X X X i n.Y.K.E n T.T.T.T.T.",
"T.T.T.T.T.T.6 w %.M.N.t.Q u c.J.J.c.= Q i.I.I.B.D M T.T.T.T.T.T.",
"T.T.T.T.T.T.T.6 q G 9.A.G.F.G.J.P.P.P.Y.I.V.W C m T.T.T.T.T.T.T.",
"T.T.T.T.T.T.T.T.T.7 x B { 4.j.Z.A.C.s...S C C T.T.T.T.T.T.T.T.T.",
"T.T.T.T.T.T.T.T.T.T.T.T.x x b n C C C C T.T.T.T.T.T.T.T.T.T.T.T."
};
