/* XPM */
static char *wiki64[] = {
/* columns rows colors chars-per-pixel */
"64 64 207 2 ",
"   c #032E56",
".  c #032F59",
"X  c #033157",
"o  c #03345B",
"O  c #0C335B",
"+  c #04385E",
"@  c #0C395E",
"#  c #1D3D5B",
"$  c #12365B",
"%  c #2C384E",
"&  c #2C374D",
"*  c #253B56",
"=  c #2B3A52",
"-  c #233E5B",
";  c #2B3E59",
":  c #043661",
">  c #043B63",
",  c #0A3D64",
"<  c #043E69",
"1  c #083E6A",
"2  c #143D61",
"3  c #1B3D64",
"4  c #1E405F",
"5  c #25405E",
"6  c #0D4166",
"7  c #04426C",
"8  c #0A446C",
"9  c #0C496F",
"0  c #164263",
"q  c #1C4363",
"w  c #13466B",
"e  c #1C4469",
"r  c #1B496D",
"t  c #12486D",
"y  c #044671",
"u  c #044A75",
"i  c #0B4A74",
"p  c #054E7B",
"a  c #0A4D79",
"s  c #084570",
"d  c #144B72",
"f  c #1B4C72",
"g  c #144B76",
"h  c #05507E",
"j  c #0B517E",
"k  c #12537C",
"l  c #1C567C",
"z  c #1A5278",
"x  c #234364",
"c  c #214669",
"v  c #264A6D",
"b  c #344F6D",
"n  c #2E516E",
"m  c #38526E",
"M  c #2A4D73",
"N  c #235275",
"B  c #245A7D",
"V  c #2A5B7D",
"C  c #2B5476",
"Z  c #325474",
"A  c #345D7D",
"S  c #3B5C7B",
"D  c #3A5773",
"F  c #38617D",
"G  c #425C79",
"H  c #405A73",
"J  c #4C627A",
"K  c #54697D",
"L  c #055484",
"P  c #0B5483",
"I  c #055789",
"U  c #05598C",
"Y  c #0A5A8C",
"T  c #0A5688",
"R  c #135986",
"E  c #1C5B83",
"W  c #145D8B",
"Q  c #125785",
"!  c #055D91",
"~  c #0A5D91",
"^  c #115F91",
"/  c #205B81",
"(  c #0E6093",
")  c #166294",
"_  c #196394",
"`  c #1D6898",
"'  c #1C608C",
"]  c #23628C",
"[  c #2D668C",
"{  c #2D658A",
"}  c #3C6B8B",
"|  c #366585",
" . c #246996",
".. c #286996",
"X. c #346E93",
"o. c #2F709A",
"O. c #3B7296",
"+. c #33729C",
"@. c #3C769C",
"#. c #3B79A2",
"$. c #476C88",
"%. c #546D83",
"&. c #53748D",
"*. c #5B768B",
"=. c #5D798E",
"-. c #4A7796",
";. c #547791",
":. c #557A94",
">. c #5A7B93",
",. c #567E9A",
"<. c #687B8D",
"1. c #717E8F",
"2. c #647D92",
"3. c #447CA1",
"4. c #497DA0",
"5. c #55809D",
"6. c #6B8396",
"7. c #63859C",
"8. c #6C8299",
"9. c #648398",
"0. c #728496",
"q. c #718599",
"w. c #758A9B",
"e. c #7B8C9D",
"r. c #788A96",
"t. c #76838F",
"y. c #5586A8",
"u. c #4C81A4",
"i. c #658BA4",
"p. c #618BA8",
"a. c #778EA0",
"s. c #6B91AB",
"d. c #6691AE",
"f. c #7B9AAF",
"g. c #7893A5",
"h. c #7B9DB3",
"j. c #739AB3",
"k. c #7DA0B8",
"l. c #828E99",
"z. c #84949E",
"x. c #8D979E",
"c. c #91999F",
"v. c #828FA0",
"b. c #8294A3",
"n. c #8E99A1",
"m. c #8D9DAA",
"M. c #889BA7",
"N. c #939DA4",
"B. c #989FA5",
"V. c #8BA0AE",
"C. c #96A0A7",
"Z. c #9CA2A6",
"A. c #95A2AB",
"S. c #9BA4AB",
"D. c #9EA8AE",
"F. c #82A0B4",
"G. c #8BA7BA",
"H. c #8CA9BB",
"J. c #84A3B8",
"K. c #9EABB3",
"L. c #90ABBD",
"P. c #98A9B5",
"I. c #9DB2BE",
"U. c #A2A6A9",
"Y. c #A4A9AC",
"T. c #ACACAC",
"R. c #A2A5A7",
"E. c #AFB0AF",
"W. c #B0B0AF",
"Q. c #A3ADB3",
"!. c #ABAFB1",
"~. c #AEB2B4",
"^. c #ACB3B8",
"/. c #A8B5BD",
"(. c #B3B4B4",
"). c #B8B7B7",
"_. c #B8B8B7",
"`. c #B4B6B9",
"'. c #B6B9BB",
"]. c #BCBCBC",
"[. c #C0BFBF",
"{. c #C0C0BF",
"}. c #95AFC0",
"|. c #9BB3C3",
" X c #A2B6C2",
".X c #ABB9C3",
"XX c #A6BAC7",
"oX c #B5BDC3",
"OX c #BABEC1",
"+X c #BDC2C5",
"@X c #BAC5CC",
"#X c #B8C4CB",
"$X c #C4C4C4",
"%X c #C8C7C7",
"&X c #C9C8C7",
"*X c #C3C7CA",
"=X c #C3C9CD",
"-X c #CBCCCC",
";X c #D0CFCF",
":X c #CFD0CF",
">X c #C6CDD2",
",X c #CACFD1",
"<X c #CFD1D3",
"1X c #D4D4D4",
"2X c #D8D8D8",
"3X c #D6D7D8",
"4X c None",
/* pixels */
"4X4X4X4X4X4X4X4X4X4X4X4X4X4X4X4X4X4X4X4X4X4X4X4X4X4X! U U U U U U I U U U L 4X4X4X4X4X4X4X4X4X4X4X4X4X4X4X4X4X4X4X4X4X4X4X4X4X4X",
"4X4X4X4X4X4X4X4X4X4X4X4X4X4X4X4X4X4X4X4X4X4X! ! ! ! U ! U I U U I L L T L L I L L L 4X4X4X4X4X4X4X4X4X4X4X4X4X4X4X4X4X4X4X4X4X4X",
"4X4X4X4X4X4X4X4X4X4X4X4X4X4X4X4X4X4X4X4X! ! ! ! ! ) ..u.s.h.H.I.I.L.F.s.5.X.R T L L L p 4X4X4X4X4X4X4X4X4X4X4X4X4X4X4X4X4X4X4X4X",
"4X4X4X4X4X4X4X4X4X4X4X4X4X4X4X4X4X! ! ! ! ! _ y.|.@X<X1X1X1X1X-X-X,X%X%X&X*XOXK.i./ P L L p L 4X4X4X4X4X4X4X4X4X4X4X4X4X4X4X4X4X",
"4X4X4X4X4X4X4X4X4X4X4X4X4X4X4X! ! ! ! ! +.G.>X3X3X3X1X1X1X;X;X;X;X-X-X*X&X%X%X$X$X].A.-.h h h p 4X4X4X4X4X4X4X4X4X4X4X4X4X4X4X4X",
"4X4X4X4X4X4X4X4X4X4X4X4X4X4X! ! ! ! #.}.3X3X3X3X1X3X1X-XoXL.F.h.f.h.V./.OX*X$X$X$XOX+X[.D.;.h p p p 4X4X4X4X4X4X4X4X4X4X4X4X4X4X",
"4X4X4X4X4X4X4X4X4X4X4X4X4X! ! ! _ h.3X3X3X3X3X<X.Xj.+.W Y T L L L L L P T ] ,.V.'.$X].].].].m.{ p p p 4X4X4X4X4X4X4X4X4X4X4X4X4X",
"4X4X4X4X4X4X4X4X4X4X4X! ! ! ! #.@X2X3X3X3X>XG.+.Y U U U U U U L U L L L L L L L R 7.Q.].].]._.^.:.a p u u 4X4X4X4X4X4X4X4X4X4X4X",
"4X4X4X4X4X4X4X4X4X4XY ! ! ~ d.<X2X3X3X<XF. .U U U U U U U U L L L L L L L h L L h h Q -.^.].).)._.g.k p p u 4X4X4X4X4X4X4X4X4X4X",
"4X4X4X4X4X4X4X4X4XT ! ! ~ k.3X3X3X3X Xo.U U U U U U U U L L U U L L L L L L p h p h p p k g.).(._.E.C.l u u u 4X4X4X4X4X4X4X4X4X",
"4X4X4X4X4X4X4X4XQ ! ! ~ J.3X3X3X1Xd.Y U U U U U U L U L L L L L L L L L h h h h h h p p a m.).(.W.W.~.C.l u u 8 4X4X4X4X4X4X4X4X",
"4X4X4X4X4X4X4X .! U ~ k.3X3X1X>X3.U Y U U U U U L U L U L U L L L L L h L h h h p h p p u S.(.(.(.(.E.E.C.l u y 8 4X4X4X4X4X4X4X",
"4X4X4X4X4X4X4X~ U Y d.3X3X3X=X+.U U U U U U U L U L U L L L L L L h L h h h h p h p h u a S.(.(.W.W.E.E.W.z.d y u 4X4X4X4X4X4X4X",
"4X4X4X4X4X4XP U ! 3.,X1X1X@Xo.U U U U U U U U U L U L L L L L L L L L h h h h h p h p p i A.(.W.W.E.E.E.T.T.6.u u 8 4X4X4X4X4X4X",
"4X4X4X4X4Xf U U _ @X1X1X>X@.U U U U U U L U U L L U U L L L h L h h h h p h h p p p p p u A.~.(.E.E.T.T.T.T.Y.$.7 u w 4X4X4X4X4X",
"4X4X4X4X4XT ! U G.3X1X1Xy.U U U U U U U L L L U L L L L L L L L h h h h h p a p p u u p i C.W.T.E.E.T.0.c.T.T.c.z y s 4X4X4X4X4X",
"4X4X4X4Xg U U @.-X1X<Xk.U U U U I I U I L I L U L L L L p L L h h h p p p p p p i p p u y C.T.T.T.T.T.=.F Z.T.R.t.u u t 4X4X4X4X",
"4X4X4X- T U ~ .X1X1X@X' U U I I I I L I I L L L L L L L L L p P h h p p p p p p p p u u y C.W.T.T.T.T.*.7 9.T.T.R.B u u 4X4X4X4X",
"4X4X4Xr U U u.:X:X:Xu.I L U I U I I I I U L L L L L L p p L p p p h p p p p p u u u u u y C.T.T.T.T.Y.*.y d Z.T.T.r.u u f 4X4X4X",
"4X4X* P U T .X:X:X/.T I U L L I L L L L L L L h L p L L p p p L h p p p p u u u y u u u y c.T.T.R.Y.Y.*.y y &.T.T.T.V p i 4X4X4X",
"4X4Xq I U o.-X-X-X,.I I L I L L L L L P h L L h L p p L p p p p u u p u u u u u u u y y y c.Y.T.T.T.T.*.7 7 d Z.E.E.w.u u 4 4X4X",
"4X4Xd I I h.;X-XoXT I I U L L L L L L h h h h h L p p p p p p p u p u u u u u y y y y y 8 x.T.R.T.R.Y.*.7 y y =.E.T.D.z p 9 4X4X",
"4X= L I W +X-X-Xi.L L L L L L L L h h h h h h h p p p p p p u u u u u u u y u y 7 u y y 6 x.T.T.T.T.T.<.y y y B E.E.W.} u u 4X4X",
"4X5 I I O.&X&X%X] L L L L h h L h h h h h h h h p p p p u u u u u u u u y y y y y 7 7 7 7 x.T.T.T.T.T.<.y y y y z.W.W.g.p h 5 4X",
"4Xr I L i.-X&X`.X.[ [ [ { { [ { { E h p p p p p p p u u u u l B B B z 7 u y y 7 7 7 7 7 7 x.T.T.W.T.W.=.y y y y ;.(.(.D.j u q 4X",
"4Xd I L P.&X*X&X&X&X&X-X%X%X%X$X$XOX} p p p u u u u u u u 8.).).(.(.E.F 7 7 7 7 7 7 7 7 6 c.T.E.W.W.(.=.7 y y y B (._.~.l h t 4X",
"% a L Q ].*X%X%X$X$X$X$X$X$X{.$X[.[.A.a p p u u u u u y i C.W.W.E.E.T.c.6 7 7 7 7 7 7 7 7 C.T.E.W.W.(.=.y y y y i ~._._.} p a 4X",
"% h L ] +X$X$X$X$X$X$X+X].$X].].].].].} u u u u u y u y 9 Z.W.W.E.T.T.T.*.7 6 7 6 7 7 7 7 c.E.W.(.(.(.>.y y y y y C._._.5.h p 5 ",
"; h L X.{.+X$X{.{.{.$X].].{.].].].].].D.i y u y 1 u y y 8 B.T.W.T.T.T.T.Z.r 6 7 7 7 7 7 8 N.W.(.(.(.(.2.y y y y 7 w.].].a.p p 5 ",
"* L h -.{.{.{.$X{.{.{.].{.].].].].].]._.;.y u 7 y y y 7 7 B.T.T.T.T.R.R.T.r.6 7 7 7 7 7 < B.(.(.(.).(.2.y y y y y 9.].].M.h p 5 ",
"# h h 5.{.{.{.{.{.{.+X].].].].].].).).'.Q.z 7 7 < y < 7 8 N.T.T.T.R.R.T.T.Y.F 7 7 7 7 7 1 C.(.).).'.).2.y y y y 7 :.].].A.j h * ",
"5 h h 5.{.{.^.>.>.:.>.>.>.>.A.).).).(.(.).2.7 7 y < 7 < 8 c.Y.R.R.T.T.T.T.E.c.6 7 7 7 7 1 S.).(.).'.].2.7 7 y y 7 &.].{.K.h j 5 ",
"4 h p 5.{.].Q.a u y y y y u F _._._.(.(.E.E.f 7 > 7 7 6 , c.R.T.T.T.T.T.W.W.W.K < 7 7 7 , S.)._.].].].2.u u < < u -.].].Q.P L * ",
"* p h -.].].Y.s y y y 7 7 7 7 r.(.(.(.E.E.E.t.6 7 7 > + , c.Y.T.T.T.W.W.W.W.E.E.f 7 7 7 < S._.].].].].2.< < u < 1 >.$X$XP.L L - ",
"* p p -.].].T.s 7 y 7 7 7 7 7 z !.(.W.(.E.E.T.D + > > 7 , c.T.T.T.T.W.W.E.(.(._.e.< < y 1 D.].].].[.].2.< u u < < 2.*X$XM.P L - ",
"= p h { _.).~.d 7 7 7 7 7 7 > 6 9.E.E.E.E.T.T.l.6 > > > 6 c.W.T.T.W.W.W.(.(.(.(.(.| < < 1 D.].].[.OX$X2.< u < y < F.*X$Xg.L P - ",
"% i p E ~._.(.N 7 7 < 7 7 7 > 7 0 D.T.E.T.T.R.T.F + > > , c.W.W.E.E.E.(.(._._._.).D.1 < , D.[.OX[.[.[.2.7 y 1 y 1 Q.%X%X,.L L ; ",
"& t p j !._._.| < < 7 > + 7 7 + > %.T.T.T.T.T.R.x.@ + 7 , N.W.W.~.(.(._._._._._.).].*.< 1 Q.[.[.[.$X%X2.y < y < d OX$X*X3.L j 4X",
"4X0 p u M.(.(.<.> 7 > > + 7 6 + + 6 c.T.T.R.Y.Y.T.%.+ + , N.T.(.(.(.(.Y._._._.].].OX^.M 1 D.[.$X$X$X%X8.< y < y / %X&X*XW L f 4X",
"4X4 p p ;.(.(.C.7 > > > 6 + + 6 + + F T.T.R.T.T.T.Z.w + , B.(.(._._.(.r.V._.].].].[.OXa., Q.$X$X$X$X%X2.< < < < 2.%X&XoXT U c 4X",
"4X* u p { (.W.T.n 6 6 6 X 6 6 X + + @ l.T.T.T.T.T.W.<.> > Z.(.(.(._._.q.C '.OX[.[.[.$XOX| Q.$X$X%X%X,X2.< 1 1 1 Q.-X-XF.P L - 4X",
"4X= 9 u i U.E.(.K 6 X 6 + X + + + + o n R.T.T.T.(.T.T.v > Z.).)._._.].q.: q.[.[.[.[.$X$XB.^.$X%X%X%X,X2.< 1 1 / -X,X-X+.U P 4X4X",
"4X4Xq u u 9.E.T.R.0 X 6 + + X + + o + + t.T.E.E.T.(.(.r., Z.].)._._.].q.< w `.OX$X$X$X%X%X%X%X&X%X-X,X1.< < < a.;X-XOXW T f 4X4X",
"4X4X* u u B T.T.T.D 6 X X + + X o + o o r T.T.W.(.(.(.~.D C.).].].].].w.: : $.$X$X$X%X$X*X%X-X&X-X-X,X2.< < f *X;X;Xh.U U x 4X4X",
"4X4X4Xw u u z.T.T.c.0 X X X X + o + o o o <.E.E.(.(.).).N.U.].].].{.{.w.+ > , D.%X$X%X%X&X-X-X-X-X-X-X1.< < q.;X;X=X .U k 4X4X4X",
"4X4X4X4 u u F T.T.T.J X 6 + X X X o o o o 4 D.(.(.(.).).'.].].].].{.{.w.> > > C $X%X%X%X-X-X-X-X-X,X<X1.> N *X;X1XH.T U e 4X4X4X",
"4X4X4X% 8 u u e.T.R.Z.4 X X X + + X o o o + K (.).).'.).].].].[.{.{.$Xw.> : > : a.%X-X-X-X-X,X-X,X,X<X1., m.;X1X-X .U T 4X4X4X4X",
"4X4X4X4X4 y y V R.T.R.t.X X X X + X o o o + @ C.).).].].].].].[.{.+X$Xw.: > > : e oX-X-X-X-X;X;X<X3X3X1.$.<X1X1Xk.U Y r 4X4X4X4X",
"4X4X4X4X4X8 y y 6.Y.T.T.K X X o o X X o o o o G ].'.].].].[.$X{.$X$X%Xv.: : : : : *.-X-X-X;X;X1X<X1X1Xm.*X1X1XoX^ ! Q 4X4X4X4X4X",
"4X4X4X4X4X* y y t x.T.T.T.D X X X X o X o o o o n.].].].].[.OX$X$X$X%X1.: : : : : , Q.;X;X1X;X;X1X1X1X1X3X1X1X3.! ~ c 4X4X4X4X4X",
"4X4X4X4X4X4X4 u u V Z.E.E.Y.m X X X X X X X X o n ].].].].$X$X$X$X%X%Xa.: : : : : : S >X1X;X1X1X1X3X1X3X3X3Xj.! ! g 4X4X4X4X4X4X",
"4X4X4X4X4X4X4X8 u y $.!.E.E.T.m   X X X X X X o X e.].$X[.$X$X$X*X%X%Xa.: : : : : : : v.1X1X1X1X3X1X1X3X3X}.~ ! P 4X4X4X4X4X4X4X",
"4X4X4X4X4X4X4X* 9 u u ;.E.W.W.T.J       X X   X X c '.[.$X$X%X%X$X%X-Xa.: : . : : : . 3 *X1X1X1X3X3X2X2XXX^ ! T 4X4X4X4X4X4X4X4X",
"4X4X4X4X4X4X4X4X4 u u u 5.W.(._.(.1.$   .   X . .   <.$X$X$X*X%X%X-X-Xa.. : : . : : : : 2.3X1X3X3X3X2XXX) ~ ! M 4X4X4X4X4X4X4X4X",
"4X4X4X4X4X4X4X4X4X4 u u i ;.(.(.).).B.H         .   3 `.%X$X%X&X-X%X-Xv.: . : . . : : . M <X2X1X3X2X|.) ! T g 4X4X4X4X4X4X4X4X4X",
"4X4X4X4X4X4X4X4X4X4X4 u p p } Y.).).).].l.m           %.%X%X*X&X-X-X-Xa.. . . : . : 3 1.,X1X2X2X3XJ.~ ! ! Q 4X4X4X4X4X4X4X4X4X4X",
"4X4X4X4X4X4X4X4X4X4X4X0 u p p B m.].].].].].n.m $     O !.%X-X-X-X-X;Xv.. . . O M e.>X3X3X2X2X>Xy.! ! ~ 4X4X4X4X4X4X4X4X4X4X4X4X",
"4X4X4X4X4X4X4X4X4X4X4X4X4Xa p h h :.~.].].$X$XOX).l.G x G %X-X-X-X;X;Xv.3 G 1.oX<X3X3X3X2X3X}.` ! ! Y 4X4X4X4X4X4X4X4X4X4X4X4X4X",
"4X4X4X4X4X4X4X4X4X4X4X4X4X4X9 p p h E 7.'.$X].$X%X%X%X%X[.=X-X-X;X;X;X-X,X1X1X3X3X3X2X2X X#.! ! ! T 4X4X4X4X4X4X4X4X4X4X4X4X4X4X",
"4X4X4X4X4X4X4X4X4X4X4X4X4X4X4X4Xa h h h E i.Q.%X%X$X%X%X%X;X-X-X;X;X;X1X1X1X3X3X3X>X}.#.~ ~ ! ~ 4X4X4X4X4X4X4X4X4X4X4X4X4X4X4X4X",
"4X4X4X4X4X4X4X4X4X4X4X4X4X4X4X4X4Xu p L p L P X.s.P.OX-X=X-X;X;X;X;X<X1X1X1XoXG.p.) ! ! ! ! 4X4X4X4X4X4X4X4X4X4X4X4X4X4X4X4X4X4X",
"4X4X4X4X4X4X4X4X4X4X4X4X4X4X4X4X4X4X4X4XL h L L P P W X.,.s.F.L.L.G.h.p.3. .~ ! ! ! ! ! 4X4X4X4X4X4X4X4X4X4X4X4X4X4X4X4X4X4X4X4X",
"4X4X4X4X4X4X4X4X4X4X4X4X4X4X4X4X4X4X4X4X4X4XL L L U L I I I I U T U I ! ! ~ ! ! ! 4X4X4X4X4X4X4X4X4X4X4X4X4X4X4X4X4X4X4X4X4X4X4X",
"4X4X4X4X4X4X4X4X4X4X4X4X4X4X4X4X4X4X4X4X4X4X4X4X4X4X4XI U I I ! T ! ! ! ! 4X4X4X4X4X4X4X4X4X4X4X4X4X4X4X4X4X4X4X4X4X4X4X4X4X4X4X"
};
