/* XPM */
static char *wiki16[] = {
/* columns rows colors chars-per-pixel */
"16 16 201 2 ",
"   c #033258",
".  c #033459",
"X  c #03355B",
"o  c #07355B",
"O  c #04325D",
"+  c #0F375C",
"@  c #04385E",
"#  c #043660",
"$  c #043E66",
"%  c #0E3A63",
"&  c #0E3E62",
"*  c #043F68",
"=  c #04416D",
"-  c #04436C",
";  c #04436F",
":  c #04446C",
">  c #04446E",
",  c #04456F",
"<  c #0D4368",
"1  c #0B476D",
"2  c #0A476E",
"3  c #0D476E",
"4  c #11426A",
"5  c #10456A",
"6  c #10496F",
"7  c #044570",
"8  c #044670",
"9  c #044671",
"0  c #044973",
"q  c #044975",
"w  c #044A76",
"e  c #044B76",
"r  c #0E4B71",
"t  c #094E76",
"y  c #054B78",
"u  c #054C79",
"i  c #054D79",
"p  c #054E7A",
"a  c #054F7C",
"s  c #0E4E78",
"d  c #1B4E76",
"f  c #114F78",
"g  c #104F79",
"h  c #05507D",
"j  c #05507F",
"k  c #0D527B",
"l  c #0A527F",
"z  c #165177",
"x  c #1B5074",
"c  c #195177",
"v  c #1B5176",
"b  c #135179",
"n  c #1C5379",
"m  c #1A577E",
"M  c #1D567C",
"N  c #254F6E",
"B  c #265B7E",
"V  c #355B77",
"C  c #30607E",
"Z  c #405D79",
"A  c #526A7F",
"S  c #055180",
"D  c #055282",
"F  c #055382",
"G  c #055383",
"H  c #055483",
"J  c #055484",
"K  c #055585",
"L  c #055686",
"P  c #0A5482",
"I  c #0F5582",
"U  c #0B5685",
"Y  c #055788",
"T  c #055789",
"R  c #05588A",
"E  c #05598B",
"W  c #0F5F8F",
"Q  c #125986",
"!  c #095E91",
"~  c #0F5F91",
"^  c #2E5F81",
"/  c #0E6194",
"(  c #106190",
")  c #116294",
"_  c #196190",
"`  c #2F6284",
"'  c #296A92",
"]  c #397296",
"[  c #3D779C",
"{  c #416B87",
"}  c #4F6B81",
"|  c #516F8A",
" . c #57758A",
".. c #43789A",
"X. c #537C97",
"o. c #60798B",
"O. c #6C7D8E",
"+. c #437EA2",
"@. c #447FA4",
"#. c #648091",
"$. c #638195",
"%. c #6D8796",
"&. c #62869D",
"*. c #6F8698",
"=. c #768590",
"-. c #7C8B97",
";. c #778F9F",
":. c #7A8C98",
">. c #7D8E9A",
",. c #7D8F9B",
"<. c #798F9D",
"1. c #7D8F9C",
"2. c #7D909B",
"3. c #7F919D",
"4. c #4D81A1",
"5. c #5486A3",
"6. c #5886A2",
"7. c #5887A4",
"8. c #5C8AA7",
"9. c #5989A8",
"0. c #5E8DAB",
"q. c #6A8BA0",
"w. c #7E93A1",
"e. c #7C92A3",
"r. c #7595A9",
"t. c #6694B1",
"y. c #6B97B3",
"u. c #779DB5",
"i. c #808F9A",
"p. c #808D9C",
"a. c #82919C",
"s. c #82939F",
"d. c #87959F",
"f. c #8094A1",
"g. c #8395A3",
"h. c #8696A3",
"j. c #8493A4",
"k. c #8095A7",
"l. c #8999A3",
"z. c #8B9AA7",
"x. c #8A9BA7",
"c. c #8C9CA6",
"v. c #8D9CA6",
"b. c #8D9EA9",
"n. c #979EA3",
"m. c #959EA4",
"M. c #989EA4",
"N. c #949FA8",
"B. c #9DA3A9",
"V. c #82A2B7",
"C. c #8EA7B7",
"Z. c #8FA9B9",
"A. c #8CAABC",
"S. c #9BA8B3",
"D. c #9DABB4",
"F. c #9FAEB7",
"G. c #9DB0BC",
"H. c #A0A4A7",
"J. c #A1A7AD",
"K. c #A2A8AE",
"L. c #AAAAAA",
"P. c #ABACAD",
"I. c #ACAEAF",
"U. c #AEAEAE",
"Y. c #A3ACB3",
"T. c #A7ADB3",
"R. c #A3AEB5",
"E. c #A6AFB5",
"W. c #A8ADB1",
"Q. c #ADAFB0",
"!. c #AFB1B2",
"~. c #ADB2B7",
"^. c #AEB3B6",
"/. c #ACB2B8",
"(. c #B6B7B7",
"). c #B7B7B7",
"_. c #B2B7BB",
"`. c #B2B7BD",
"'. c #B7B8B8",
"]. c #B7BBBE",
"[. c #B6BBBF",
"{. c #B8B9BA",
"}. c #B9BCBD",
"|. c #98B1C1",
" X c #9CB4C3",
".X c #A6BAC7",
"XX c #B7BCC0",
"oX c #B7BCC1",
"OX c #B7BFC7",
"+X c #BBC0C2",
"@X c #B7C3CB",
"#X c #C1C1C1",
"$X c #C3C3C3",
"%X c #C0C2C4",
"&X c #C6C6C6",
"*X c #C2C6CA",
"=X c #C5C7C9",
"-X c gray80",
";X c #D0D1D2",
":X c #D2D2D2",
">X c None",
/* pixels */
">X>X>X>X>X/ @.9.6...Q >X>X>X>X>X",
">X>X>X! t.@XV.8.6.r.E.&.k >X>X>X",
">X>X(  Xu./ E J H S l b.v.b >X>X",
">XU A.0.R R Y J S h u f.P.2.1 >X",
">X[ Z.R Y J S S h u e >.n.#.{ >X",
"s C.' J S S a u e 0 7 :.M.z l.3 ",
"g +XF.D.q.u q $.2.1 , >.B.7 v.c ",
"M }.E.^.'.B > >.L. .- s.K., ;.` ",
"M l.> v !.p.$ -.U.Q.v g.T.7 e.` ",
"6 N.$ $ o.L.V >.!.(.g.l./.= D.M ",
"5 <.N @ & H.n.d.T.*.$X[.`.d G.g ",
">XC =.X X } ).{.^.4 XX-XoXk.4.>X",
">X< %.A   o J.#X_.#  .;X;X|.I >X",
">X>Xr e.O.+ Z &X[.O % *X.X_ >X>X",
">X>X>Xt X.E.p.+X*Xj.OXy.~ >X>X>X",
">X>X>X>X>XP ] 5.9.+.) >X>X>X>X>X"
};
